<svg width="64" height="45" viewBox="0 0 64 45" fill="none" xmlns="http://www.w3.org/2000/svg">
<g clip-path="url(#clip0_264_125)">
<path d="M11.25 11.25C11.25 4.875 16.125 0 22.5 0C28.875 0 33.75 4.875 33.75 11.25C33.75 17.625 28.875 22.5 22.5 22.5C16.125 22.5 11.25 17.625 11.25 11.25ZM22.5 30C5.25 30 0 42.375 0 42.375V48.75H45V42.375C45 42.375 39.75 30 22.5 30Z" fill="#8C8C8C"/>
<path d="M46.3333 16.6667C50.9357 16.6667 54.6667 12.9357 54.6667 8.33333C54.6667 3.73096 50.9357 0 46.3333 0C41.731 0 38 3.73096 38 8.33333C38 12.9357 41.731 16.6667 46.3333 16.6667Z" fill="#8C8C8C"/>
<path d="M46.3333 23.3333C42.3333 23.3333 39.3333 24.3333 37 26C44.6667 29.6667 47.6667 36 47.6667 36.6667V37H61.3333V32.6667C61.3333 32.3333 57.6667 23.3333 46.3333 23.3333Z" fill="#8C8C8C"/>
</g>
<defs>
<clipPath id="clip0_264_125">
<rect width="64" height="45" fill="white"/>
</clipPath>
</defs>
</svg>
